<svg width="30" height="46" viewBox="0 0 30 46" fill="none" xmlns="http://www.w3.org/2000/svg">
<path d="M15.1875 0.3125C17.3125 0.3125 19.2292 0.604167 20.9375 1.1875C22.6875 1.77083 24.1667 2.5625 25.375 3.5625C26.5833 4.52083 27.5 5.64583 28.125 6.9375C28.7917 8.1875 29.1042 9.47917 29.0625 10.8125C28.9792 13.0625 28.4792 15.0208 27.5625 16.6875C26.6458 18.3125 25.5 19.7083 24.125 20.875C22.7917 22 21.3333 22.9167 19.75 23.625C18.2083 24.2917 16.75 24.7708 15.375 25.0625C15.3333 25.8125 15.3125 26.6875 15.3125 27.6875C15.3542 28.6458 15.4167 29.6667 15.5 30.75C15.5833 31.7917 15.7083 32.8333 15.875 33.875C16.0417 34.9167 16.2917 35.875 16.625 36.75C16.2917 36.6667 15.7917 36.6458 15.125 36.6875C14.5 36.6875 13.8333 36.7292 13.125 36.8125C12.4583 36.8958 11.7917 37.0208 11.125 37.1875C10.5 37.3542 10 37.5625 9.625 37.8125C9.83333 36.6458 10.0208 35.2708 10.1875 33.6875C10.3958 32.1042 10.5417 30.5625 10.625 29.0625C10.75 27.5625 10.8333 26.2292 10.875 25.0625C10.9167 23.8958 10.8958 23.1667 10.8125 22.875C11.6458 22.9583 12.7708 22.8542 14.1875 22.5625C15.6458 22.2292 17.0417 21.6042 18.375 20.6875C19.75 19.7292 20.9167 18.4583 21.875 16.875C22.8333 15.25 23.25 13.1875 23.125 10.6875C23.0417 8.9375 22.6458 7.54167 21.9375 6.5C21.2292 5.41667 20.3542 4.60417 19.3125 4.0625C18.2708 3.47917 17.125 3.125 15.875 3C14.6667 2.83333 13.5208 2.8125 12.4375 2.9375C11.1875 3.0625 10 3.375 8.875 3.875C7.79167 4.375 6.875 5.02083 6.125 5.8125C5.375 6.5625 4.8125 7.47917 4.4375 8.5625C4.10417 9.64583 4.04167 10.8542 4.25 12.1875C4.375 13.0208 4.70833 13.8125 5.25 14.5625C5.83333 15.2708 6.54167 15.875 7.375 16.375C8.20833 16.8333 9.125 17.1458 10.125 17.3125C11.1667 17.4792 12.1875 17.4167 13.1875 17.125C13.9375 16.875 14.5833 16.5208 15.125 16.0625C15.6667 15.6042 16.0833 15.0833 16.375 14.5C16.6667 13.875 16.8333 13.25 16.875 12.625C16.9167 12 16.8333 11.3958 16.625 10.8125C16.25 9.6875 15.6667 8.91667 14.875 8.5C14.125 8.04167 13.3542 7.83333 12.5625 7.875C11.4375 7.95833 10.5625 8.25 9.9375 8.75C9.35417 9.20833 9.02083 9.75 8.9375 10.375C8.85417 11.25 9.08333 11.875 9.625 12.25C10.2083 12.5833 10.7917 12.75 11.375 12.75C11.9583 12.75 12.4583 12.5417 12.875 12.125C12.5417 12.0417 12.25 11.8542 12 11.5625C11.75 11.2292 11.7292 10.8333 11.9375 10.375C12.0625 10.0833 12.2917 9.875 12.625 9.75C12.9583 9.625 13.2917 9.625 13.625 9.75C14 9.83333 14.2917 10.0417 14.5 10.375C14.75 10.7083 14.8333 11.1875 14.75 11.8125C14.5833 12.6042 14.125 13.1875 13.375 13.5625C12.625 13.9375 11.875 14.1458 11.125 14.1875C10.7917 14.1875 10.3958 14.125 9.9375 14C9.52083 13.875 9.10417 13.6875 8.6875 13.4375C8.27083 13.1458 7.91667 12.7917 7.625 12.375C7.375 11.9583 7.25 11.4583 7.25 10.875C7.20833 9.79167 7.64583 8.8125 8.5625 7.9375C9.52083 7.0625 10.7917 6.625 12.375 6.625C13.125 6.625 13.8542 6.75 14.5625 7C15.3125 7.20833 15.9792 7.52083 16.5625 7.9375C17.1458 8.35417 17.625 8.875 18 9.5C18.375 10.0833 18.5833 10.75 18.625 11.5C18.7083 12.5833 18.5625 13.6042 18.1875 14.5625C17.8542 15.4792 17.2917 16.2917 16.5 17C15.75 17.6667 14.7917 18.2083 13.625 18.625C12.4583 19 11.125 19.1667 9.625 19.125C8.04167 19.0833 6.66667 18.8333 5.5 18.375C4.33333 17.9167 3.35417 17.3542 2.5625 16.6875C1.8125 15.9792 1.25 15.2083 0.875 14.375C0.5 13.5417 0.3125 12.6875 0.3125 11.8125C0.3125 10.1875 0.6875 8.6875 1.4375 7.3125C2.1875 5.89583 3.22917 4.6875 4.5625 3.6875C5.89583 2.64583 7.45833 1.83333 9.25 1.25C11.0833 0.625 13.0625 0.3125 15.1875 0.3125ZM13.375 39.625C14.4167 39.5 15.2708 39.6667 15.9375 40.125C16.6042 40.5417 16.9583 41.2292 17 42.1875C17.0417 43.1458 16.7292 43.9792 16.0625 44.6875C15.3958 45.3958 14.4583 45.7708 13.25 45.8125C12.4167 45.8542 11.6042 45.6667 10.8125 45.25C10.0625 44.875 9.64583 44.2083 9.5625 43.25C9.47917 42.3333 9.83333 41.5417 10.625 40.875C11.4583 40.1667 12.375 39.75 13.375 39.625Z" fill="#1C1C1C"/>
</svg>
